# AST/ASF file generated using VICON BodyLanguage
# -----------------------------------------------
:version 1.10
:name VICON
:units
  mass 1.0
  length 0.45
  angle deg
:documentation
   .ast/.asf automatically generated from VICON data using
   VICON BodyBuilder and BodyLanguage model FoxedUp or BRILLIANT.MOD
:root
   order TX TY TZ RX RY RZ
   axis XYZ
   position 0 0 0  
   orientation 0 0 0 
:bonedata
  begin
     id 1 
     name lhipjoint
     direction 0.660183 -0.676772 0.325788 
     length 2.75133 
     axis 0 0 0  XYZ
  end
  begin
     id 2 
     name lfemur
     direction 0.34202 -0.939693 0  
     length 7.70317  
     axis 0 0 20  XYZ
    dof rx ry rz
    limits (-160.0 20.0)
           (-70.0 70.0)
           (-60.0 70.0)
  end
  begin
     id 3 
     name ltibia
     direction 0.342105 -0.939662 0   
     length 7.18701   
     axis 0 0 20   XYZ
    dof rx
    limits (-10.0 170.0)
  end
  begin
     id 4 
     name lfoot
     direction 0.14163 -0.389126 0.910232   
     length 2.41719   
     axis -90 7.62852e-016 20   XYZ
    dof rx rz
    limits (-45.0 90.0)
           (-70.0 20.0)
  end
  begin
     id 5 
     name ltoes
     direction 1.53533e-011 -4.21926e-011 1   
     length 1.18611   
     axis -90 7.62852e-016 20   XYZ
    dof rx
    limits (-90.0 20.0)
  end
  begin
     id 6 
     name rhipjoint
     direction -0.6658 -0.67229 0.323631   
     length 2.76968  
     axis 0 0 0  XYZ 
  end
  begin
     id 7 
     name rfemur
     direction -0.34202 -0.939693 0   
     length 7.92547   
     axis 0 0 -20   XYZ
    dof rx ry rz
    limits (-160.0 20.0)
           (-70.0 70.0)
           (-70.0 60.0)
  end
  begin
     id 8 
     name rtibia
     direction -0.342022 -0.939692 0   
     length 7.22641   
     axis 0 0 -20   XYZ
    dof rx
    limits (-10.0 170.0)
 end
 begin
     id 9 
     name rfoot
     direction -0.105675 -0.29034 0.951071   
     length 2.48149  
     axis -90 -7.62852e-016 -20   XYZ
    dof rx rz
    limits (-45.0 90.0)
           (-20.0 70.0)
  end
  begin
     id 10 
     name rtoes
     direction -1.5349e-011 -4.21859e-011 1   
     length 1.23343   
     axis -90 -7.62852e-016 -20   XYZ
    dof rx
    limits (-90.0 20.0)
  end
  begin
     id 11 
     name lowerback
     direction 0.0104173 0.993624 -0.112266   
     length 2.00527   
     axis 0 0 0   XYZ
    dof rx ry rz
    limits (-20.0 45.0)
           (-30.0 30.0)
           (-30.0 30.0)
  end
  begin
     id 12 
     name upperback
     direction 0.00733149 0.999856 -0.0152913   
     length 2.01385   
     axis 0 0 0   XYZ
    dof rx ry rz
    limits (-20.0 45.0)
           (-30.0 30.0)
           (-30.0 30.0)
  end
  begin
     id 13 
     name thorax
     direction 0.0026304 0.999318 0.036841   
     length 2.03734   
     axis 0 0 0   XYZ
    dof rx ry rz
    limits (-20.0 45.0)
           (-30.0 30.0)
           (-30.0 30.0)
  end
  begin
     id 14 
     name lowerneck
     direction 0.0293154 0.998757 0.0403082   
     length 1.65303   
     axis 0 0 0   XYZ
    dof rx ry rz
    limits (-20.0 45.0)
           (-30.0 30.0)
           (-30.0 30.0)
  end
  begin
     id 15 
     name upperneck
     direction -0.0376619 0.998184 -0.0470083   
     length 1.60926   
     axis 0 0 0   XYZ
    dof rx ry rz
    limits (-20.0 45.0)
           (-30.0 30.0)
           (-30.0 30.0)
  end
  begin
     id 16
     name head
     direction -0.0170133 0.999635 -0.0209778  
     length 1.73625  
     axis 0 0 0   XYZ
    dof rx ry rz
    limits (-20.0 45.0)
           (-30.0 30.0)
           (-30.0 30.0)
  end
  begin
     id 17 
     name lclavicle
     direction 0.919857 0.39181 -0.0186333  
     length 3.75313  
     axis 0 0 0   XYZ
    dof ry rz
    limits (-20.0 10.0)
           (0.0 20.0)
  end
  begin
     id 18 
     name lhumerus
     direction 1 -4.48988e-011 1.44029e-027   
     length 5.49313   
     axis 180 -30 -90   XYZ
    dof rx ry rz
    limits (-60.0 90.0)
           (-90.0 90.0)
           (-90.0 90.0)
  end
  begin
     id 19
     name lradius
     direction 1 -4.48924e-011 7.46281e-027   
     length 3.29037   
     axis 180 -30 -90   XYZ
    dof rx
    limits (-10.0 170.0)
  end
  begin
     id 20
     name lwrist
     direction 1 -4.48955e-011 2.19879e-026   
     length 1.64519   
     axis -1.34358e-014 90 90   XYZ
    dof ry
    limits (-180.0 0.0)
 end
  begin
     id 21 
     name lhand
     direction 1 -4.48978e-011 4.39747e-026   
     length 0.729656   
     axis -2.80598e-014 90 90   XYZ
    dof rx rz
    limits (-90.0 90.0)
           (-45.0 45.0)
  end
  begin
     id 22 
     name lfingers
     direction 1 -4.49071e-011 8.79411e-026   
     length 0.588268   
     axis -5.61193e-014 90 90   XYZ
    dof rx
    limits (0.0 90.0)
  end
  begin
     id 23
     name lthumb
     direction 0.707107 -6.34817e-011 0.707107   
     length 0.844638   
     axis -90 45 -9.86923e-015   XYZ
    dof rx rz
    limits (-45.0 45.0)
           (-45.0 45.0)
  end
  begin
     id 24 
     name rclavicle
     direction -0.919898 0.388279 0.0550233   
     length 3.7171  
     axis 0 0 0   XYZ 
    dof ry rz
    limits (-10.0 20.0)
           (-20.0 0.0)
  end
  begin
     id 25 
     name rhumerus
     direction -1 -4.48968e-011 9.98372e-028  
     length 5.23684   
     axis 180 30 90   XYZ
    dof rx ry rz
    limits (-90.0 60.0)
           (-90.0 90.0)
           (-90.0 90.0)
  end
  begin
     id 26 
     name rradius
     direction -1 -4.48956e-011 1.01023e-026   
     length 3.38251   
     axis 180 30 90   XYZ
    dof rx
    limits (-10.0 170.0)
  end
  begin
     id 27 
     name rwrist
     direction -1 -4.4892e-011 2.19886e-026   
     length 1.69126   
     axis -1.34358e-014 -90 -90   XYZ
    dof ry
    limits (-180.0 0.0)
  end
  begin
     id 28
     name rhand
     direction -1 -4.49024e-011 4.39727e-026   
     length 0.691454   
     axis -2.80598e-014 -90 -90   XYZ
    dof rx rz
    limits (-90.0 90.0)
           (-45.0 45.0)
  end
  begin
     id 29
     name rfingers
     direction -1 -4.49097e-011 8.79388e-026   
     length 0.557468   
     axis -5.61193e-014 -90 -90   XYZ
    dof rx
    limits (0.0 90.0)
  end
  begin
     id 30
     name rthumb
     direction -0.707107 -6.34938e-011 0.707107   
     length 0.800416   
     axis -90 -45 9.86923e-015   XYZ
    dof rx rz
    limits (-45.0 45.0)
           (-45.0 45.0)
  end
:hierarchy
  begin
    root lhipjoint rhipjoint lowerback
    lhipjoint lfemur
    lfemur ltibia
    ltibia lfoot
    lfoot ltoes
    rhipjoint rfemur
    rfemur rtibia
    rtibia rfoot
    rfoot rtoes
    lowerback upperback
    upperback thorax
    thorax lowerneck lclavicle rclavicle
    lowerneck upperneck
    upperneck head
    lclavicle lhumerus
    lhumerus lradius
    lradius lwrist
    lwrist lhand lthumb
    lhand lfingers
    rclavicle rhumerus
    rhumerus rradius
    rradius rwrist
    rwrist rhand rthumb
    rhand rfingers
  end

#!OML:ASF H:\BabyWalks\Project 1\Capture day 1\Session 1\baby.ASF
:FULLY-SPECIFIED
:DEGREES
250
root -20.0548 17.107 -1.99923 -37.6761 81.9177 -46.8323
lowerback 18.3907 1.07271 3.362
upperback 5.45779 2.51912 3.14443
thorax -4.42988 1.35822 0.874964
lowerneck -1.93475 1.61335 10.2534
upperneck -6.90423 1.67091 -11.3291
head -1.50753 0.861681 -5.12533
rclavicle 1.74931e-014 -1.23246e-014
rhumerus -49.0794 7.38536 -83.3708
rradius 44.3489
rwrist 3.32376
rhand -13.7092 -16.674
rfingers 7.12502
rthumb 12.4095 -46.2856
lclavicle 1.74931e-014 -1.23246e-014
lhumerus -60.12 -14.5806 87.5201
lradius 48.3356
lwrist -0.709258
lhand 5.15072 11.2133
lfingers 7.12502
lthumb 30.5137 38.7063
rfemur -3.47087 10.1027 27.7811
rtibia 28.4938
rfoot -27.5466 -0.750709
rtoes -8.83622
lfemur -36.4897 5.84829 -9.21705
ltibia 69.8127
lfoot -23.5129 -13.8418
ltoes -17.6377
251
root -19.8506 17.147 -1.99928 -39.2001 82.1753 -48.4841
lowerback 18.3604 1.14747 3.41243
upperback 5.40415 2.61293 2.99879
thorax -4.46129 1.40156 0.671599
lowerneck -1.90028 1.46444 10.0263
upperneck -7.15796 1.47712 -11.0114
head -1.61562 0.767685 -4.99199
rclavicle -6.75868e-015 -2.10712e-014
rhumerus -49.2002 7.55558 -83.7489
rradius 45.2346
rwrist 2.28747
rhand -14.6731 -16.7785
rfingers 7.12502
rthumb 11.4801 -46.4442
lclavicle -6.75868e-015 -2.10712e-014
lhumerus -60.711 -14.6123 87.1067
lradius 48.6206
lwrist -0.380667
lhand 5.72667 11.3591
lfingers 7.12502
lthumb 31.0628 38.7486
rfemur -2.06969 9.88437 27.7998
rtibia 26.7109
rfoot -26.4529 -0.580614
rtoes -9.5732
lfemur -37.6979 5.12747 -9.43984
ltibia 67.7613
lfoot -23.6239 -12.8624
ltoes -17.3356
252
root -19.6411 17.1962 -1.99946 -40.9757 82.4229 -50.4043
lowerback 18.2999 1.21404 3.47247
upperback 5.34585 2.69553 2.84877
thorax -4.4805 1.43925 0.461541
lowerneck -1.86267 1.31599 9.80401
upperneck -7.4123 1.28519 -10.6985
head -1.72312 0.674571 -4.86072
rclavicle 3.63776e-014 7.55382e-015
rhumerus -49.3536 7.77719 -84.1487
rradius 46.1304
rwrist 1.24129
rhand -15.5878 -16.8346
rfingers 7.12502
rthumb 10.5978 -46.5473
lclavicle 3.63776e-014 7.55382e-015
lhumerus -61.241 -14.6507 86.6581
lradius 48.9316
lwrist 0.0324599
lhand 6.16176 11.4734
lfingers 7.12502
lthumb 31.4774 38.7827
rfemur -0.682278 9.67847 27.8342
rtibia 24.9329
rfoot -25.2473 -0.40328
rtoes -10.3805
lfemur -38.7508 4.35067 -9.60417
ltibia 65.4524
lfoot -23.6765 -11.9949
ltoes -17.0252
253
root -19.4284 17.2441 -2.00067 -42.8877 82.6454 -52.4688
lowerback 18.2162 1.28268 3.54249
upperback 5.28313 2.78018 2.68759
thorax -4.49032 1.47771 0.234485
lowerneck -1.8152 1.16044 9.59117
upperneck -7.66092 1.08616 -10.3768
head -1.83039 0.577388 -4.72802
rclavicle -2.34566e-014 -7.55382e-015
rhumerus -49.546 8.02173 -84.5625
rradius 47.0318
rwrist 0.221211
rhand -16.4223 -16.8135
rfingers 7.12502
rthumb 9.79279 -46.5658
lclavicle -2.34566e-014 -7.55382e-015
lhumerus -61.7062 -14.7089 86.1727
lradius 49.2521
lwrist 0.501901
lhand 6.48244 11.5586
lfingers 7.12502
lthumb 31.7829 38.8079
rfemur 0.669632 9.50051 27.877
rtibia 23.2073
rfoot -23.9287 -0.189802
rtoes -11.1401
lfemur -39.6769 3.54095 -9.70585
ltibia 62.9607
lfoot -23.6668 -11.2403
ltoes -16.6707
254
root -19.2122 17.2903 -2.00284 -44.7946 82.839 -54.5329
lowerback 18.108 1.35557 3.60205
upperback 5.221 2.86615 2.51715
thorax -4.48576 1.51687 0.00440836
lowerneck -1.78424 1.00301 9.37677
upperneck -7.88338 0.886487 -10.0381
head -1.92654 0.478655 -4.58899
rclavicle 2.38542e-015 -5.96354e-015
rhumerus -49.7562 8.28997 -84.9764
rradius 47.9171
rwrist -0.750912
rhand -17.1487 -16.6897
rfingers 7.12502
rthumb 9.09187 -46.4737
lclavicle 2.38542e-015 -5.96354e-015
lhumerus -62.0963 -14.7614 85.6488
lradius 49.5721
lwrist 0.995475
lhand 6.71878 11.6202
lfingers 7.12502
lthumb 32.008 38.8245
rfemur 2.02091 9.35482 27.9152
rtibia 21.4686
rfoot -22.4664 0.068289
rtoes -11.8229
lfemur -40.4624 2.72207 -9.75583
ltibia 60.307
lfoot -23.5887 -10.5816
ltoes -16.3189
255
root -18.9929 17.3336 -2.00575 -46.5513 83.0023 -56.4459
lowerback 17.9814 1.43756 3.6411
upperback 5.16039 2.95794 2.33182
thorax -4.46905 1.55897 -0.229976
lowerneck -1.77408 0.841522 9.15825
upperneck -8.07185 0.684048 -9.6662
head -2.00887 0.376794 -4.43823
rclavicle -2.18663e-014 -1.27222e-014
rhumerus -49.9744 8.562 -85.385
rradius 48.7754
rwrist -1.66821
rhand -17.7449 -16.4539
rfingers 7.12502
rthumb 8.51648 -46.2622
lclavicle -2.18663e-014 -1.27222e-014
lhumerus -62.401 -14.81 85.0795
lradius 49.874
lwrist 1.48591
lhand 6.90655 11.6498
lfingers 7.12502
lthumb 32.1867 38.8181
rfemur 3.33624 9.24087 27.9391
rtibia 19.8086
rfoot -20.9295 0.35024
rtoes -12.5359
lfemur -41.1072 1.91024 -9.76047
ltibia 57.5661
lfoot -23.4741 -9.99616
ltoes -15.9884
256
root -18.7707 17.3732 -2.00908 -48.0402 83.1326 -58.0842
lowerback 17.8374 1.52946 3.64036
upperback 5.1101 3.05409 2.13844
thorax -4.43276 1.60387 -0.44996
lowerneck -1.805 0.682774 8.91512
upperneck -8.21741 0.487881 -9.24705
head -2.07055 0.276177 -4.26798
rclavicle -1.49089e-015 1.55052e-014
rhumerus -50.1826 8.85253 -85.7775
rradius 49.6001
rwrist -2.52874
rhand -18.2064 -16.1104
rfingers 7.12502
rthumb 8.07117 -45.9362
lclavicle -1.49089e-015 1.55052e-014
lhumerus -62.604 -14.8307 84.4663
lradius 50.152
lwrist 1.94533
lhand 7.08439 11.6736
lfingers 7.12502
lthumb 32.356 38.8075
rfemur 4.6075 9.1556 27.9449
rtibia 18.2568
rfoot -19.3368 0.649773
rtoes -13.3205
lfemur -41.6119 1.12831 -9.72796
ltibia 54.8011
lfoot -23.3432 -9.46292
ltoes -15.7452
257
root -18.546 17.4084 -2.01264 -49.1909 83.2217 -59.3725
lowerback 17.6813 1.63396 3.60066
upperback 5.0698 3.15913 1.94012
thorax -4.3801 1.65382 -0.6537
lowerneck -1.87634 0.523411 8.64868
upperneck -8.31349 0.293731 -8.78032
head -2.10993 0.174733 -4.07854
rclavicle 1.36167e-014 7.7526e-015
rhumerus -50.3742 9.15604 -86.1491
rradius 50.3785
rwrist -3.32778
rhand -18.5176 -15.6786
rfingers 7.12502
rthumb 7.77077 -45.5158
lclavicle 1.36167e-014 7.7526e-015
lhumerus -62.6993 -14.8235 83.8157
lradius 50.39
lwrist 2.35541
lhand 7.26855 11.6911
lfingers 7.12502
lthumb 32.5313 38.789
rfemur 5.81241 9.08908 27.9364
rtibia 16.8623
rfoot -17.7106 0.987738
rtoes -14.169
lfemur -41.9842 0.396406 -9.65794
ltibia 52.0834
lfoot -23.2089 -8.96186
ltoes -15.6207
258
root -18.319 17.4388 -2.01601 -49.8628 83.2707 -60.1547
lowerback 17.5301 1.75551 3.51259
upperback 5.03893 3.27825 1.73233
thorax -4.32096 1.71124 -0.842326
lowerneck -1.91458 0.358427 8.39553
upperneck -8.21463 0.135228 -7.97688
head -2.33485 0.0647118 -4.19184
rclavicle -3.57812e-014 -5.96354e-015
rhumerus -50.5547 9.46202 -86.5046
rradius 51.1063
rwrist -4.06072
rhand -18.7005 -15.1704
rfingers 7.12502
rthumb 7.59419 -45.014
lclavicle -3.57812e-014 -5.96354e-015
lhumerus -62.6921 -14.8 83.1322
lradius 50.5869
lwrist 2.70705
lhand 7.47357 11.7208
lfingers 7.12502
lthumb 32.7263 38.7784
rfemur 6.92896 9.04245 27.9075
rtibia 15.6959
rfoot -16.0846 1.36651
rtoes -15.0274
lfemur -42.2143 -0.263508 -9.56877
ltibia 49.4877
lfoot -23.098 -8.47826
ltoes -15.6547
